<svg width="619" height="615" fill="none" xmlns="http://www.w3.org/2000/svg"><path fill-rule="evenodd" clip-rule="evenodd" d="M124.054 610.094c-55.009 0-99.764 44.772-99.764 99.802 0 55.033 44.755 99.805 99.764 99.805 55.012 0 99.766-44.772 99.766-99.805 0-55.03-44.754-99.802-99.766-99.802zm0 200.437c-55.468 0-100.593-45.143-100.593-100.635 0-55.488 45.125-100.632 100.593-100.632 55.469 0 100.594 45.144 100.594 100.632 0 55.492-45.125 100.635-100.594 100.635z" fill="#F5F5F5"/><path fill-rule="evenodd" clip-rule="evenodd" d="M124.054 598.425c-61.441 0-111.428 50.006-111.428 111.472 0 61.465 49.987 111.472 111.428 111.472 61.442 0 111.429-50.007 111.429-111.472 0-61.466-49.987-111.472-111.429-111.472zm0 223.774c-61.898 0-112.256-50.38-112.256-112.302 0-61.923 50.358-112.302 112.256-112.302 61.901 0 112.259 50.379 112.259 112.302 0 61.922-50.358 112.302-112.259 112.302z" fill="#F5F5F5"/><path fill-rule="evenodd" clip-rule="evenodd" d="M124.054 586.623C56.108 586.623.828 641.922.828 709.896c0 67.975 55.28 123.276 123.226 123.276 67.947 0 123.227-55.301 123.227-123.276 0-67.974-55.28-123.273-123.227-123.273zm0 247.377C55.651 834 0 778.328 0 709.896c0-68.431 55.65-124.103 124.054-124.103s124.055 55.672 124.055 124.103c0 68.432-55.651 124.104-124.055 124.104zm123.419-437.746c-55.01 0-99.764 44.772-99.764 99.802 0 55.033 44.754 99.805 99.764 99.805 55.011 0 99.766-44.772 99.766-99.805 0-55.03-44.755-99.802-99.766-99.802zm0 200.437c-55.469 0-100.594-45.143-100.594-100.635 0-55.487 45.125-100.632 100.594-100.632 55.468 0 100.593 45.145 100.593 100.632 0 55.492-45.125 100.635-100.593 100.635z" fill="#F5F5F5"/><path fill-rule="evenodd" clip-rule="evenodd" d="M247.473 407.516c-48.801 0-88.506 39.719-88.506 88.54 0 48.823 39.705 88.542 88.506 88.542 48.802 0 88.505-39.719 88.505-88.542 0-48.821-39.703-88.54-88.505-88.54zm0 177.911c-49.26 0-89.335-40.091-89.335-89.371 0-49.278 40.075-89.369 89.335-89.369 49.259 0 89.335 40.091 89.335 89.369 0 49.28-40.076 89.371-89.335 89.371z" fill="#F5F5F5"/><path fill-rule="evenodd" clip-rule="evenodd" d="M247.473 419.808c-42.027 0-76.219 34.206-76.219 76.249 0 42.043 34.192 76.248 76.219 76.248 42.028 0 76.219-34.205 76.219-76.248 0-42.043-34.191-76.249-76.219-76.249zm0 153.325c-42.484 0-77.047-34.576-77.047-77.076 0-42.5 34.563-77.078 77.047-77.078 42.485 0 77.048 34.578 77.048 77.078s-34.563 77.076-77.048 77.076z" fill="#F5F5F5"/><path fill-rule="evenodd" clip-rule="evenodd" d="M247.473 431.716c-35.465 0-64.317 28.863-64.317 64.341 0 35.479 28.852 64.342 64.317 64.342 35.465 0 64.317-28.863 64.317-64.342 0-35.478-28.852-64.341-64.317-64.341zm0 129.511c-35.92 0-65.145-29.236-65.145-65.17 0-35.935 29.225-65.171 65.145-65.171 35.922 0 65.146 29.236 65.146 65.171 0 35.934-29.224 65.17-65.146 65.17z" fill="#F5F5F5"/><path fill-rule="evenodd" clip-rule="evenodd" d="M247.473 444.425c-28.46 0-51.613 23.162-51.613 51.632 0 28.471 23.153 51.633 51.613 51.633s51.612-23.162 51.612-51.633c0-28.47-23.152-51.632-51.612-51.632zm0 104.093c-28.915 0-52.441-23.535-52.441-52.461 0-28.928 23.526-52.462 52.441-52.462 28.916 0 52.442 23.534 52.442 52.462 0 28.926-23.526 52.461-52.442 52.461z" fill="#F5F5F5"/><path fill-rule="evenodd" clip-rule="evenodd" d="M247.473 455.734c-22.226 0-40.307 18.089-40.307 40.323s18.081 40.322 40.307 40.322c22.225 0 40.307-18.088 40.307-40.322s-18.082-40.323-40.307-40.323zm0 81.475c-22.683 0-41.135-18.461-41.135-41.152 0-22.691 18.452-41.153 41.135-41.153 22.682 0 41.136 18.462 41.136 41.153s-18.454 41.152-41.136 41.152z" fill="#F5F5F5"/><path fill-rule="evenodd" clip-rule="evenodd" d="M247.473 467.666c-15.65 0-28.38 12.736-28.38 28.39 0 15.656 12.73 28.391 28.38 28.391 15.649 0 28.381-12.735 28.381-28.391 0-15.654-12.732-28.39-28.381-28.39zm0 57.61c-16.105 0-29.209-13.107-29.209-29.22 0-16.111 13.104-29.218 29.209-29.218 16.106 0 29.209 13.107 29.209 29.218 0 16.113-13.103 29.22-29.209 29.22z" fill="#F5F5F5"/><path fill-rule="evenodd" clip-rule="evenodd" d="M247.473 384.585c-61.442 0-111.429 50.006-111.429 111.472 0 61.465 49.987 111.472 111.429 111.472s111.429-50.007 111.429-111.472c0-61.466-49.987-111.472-111.429-111.472zm0 223.774c-61.899 0-112.257-50.379-112.257-112.302 0-61.923 50.358-112.302 112.257-112.302 61.901 0 112.258 50.379 112.258 112.302 0 61.923-50.357 112.302-112.258 112.302z" fill="#F5F5F5"/><path fill-rule="evenodd" clip-rule="evenodd" d="M247.473 372.783c-67.947 0-123.227 55.299-123.227 123.273 0 67.975 55.28 123.276 123.227 123.276S370.7 564.031 370.7 496.056c0-67.974-55.28-123.273-123.227-123.273zm0 247.377c-68.404 0-124.055-55.672-124.055-124.104 0-68.431 55.651-124.103 124.055-124.103s124.054 55.672 124.054 124.103c0 68.432-55.65 124.104-124.054 124.104zm124.69-437.746c-55.009 0-99.764 44.772-99.764 99.803 0 55.032 44.755 99.804 99.764 99.804 55.012 0 99.766-44.772 99.766-99.804 0-55.031-44.754-99.803-99.766-99.803zm0 200.437c-55.468 0-100.593-45.143-100.593-100.634 0-55.488 45.125-100.633 100.593-100.633 55.469 0 100.594 45.145 100.594 100.633 0 55.491-45.125 100.634-100.594 100.634z" fill="#F5F5F5"/><path fill-rule="evenodd" clip-rule="evenodd" d="M372.163 193.677c-48.8 0-88.505 39.718-88.505 88.539 0 48.823 39.705 88.542 88.505 88.542 48.803 0 88.506-39.719 88.506-88.542 0-48.821-39.703-88.539-88.506-88.539zm0 177.911c-49.259 0-89.334-40.091-89.334-89.372 0-49.278 40.075-89.369 89.334-89.369 49.26 0 89.335 40.091 89.335 89.369 0 49.281-40.075 89.372-89.335 89.372z" fill="#F5F5F5"/><path fill-rule="evenodd" clip-rule="evenodd" d="M372.163 205.969c-42.026 0-76.218 34.205-76.218 76.248 0 42.043 34.192 76.248 76.218 76.248 42.029 0 76.219-34.205 76.219-76.248 0-42.043-34.19-76.248-76.219-76.248zm0 153.324c-42.483 0-77.046-34.576-77.046-77.076 0-42.5 34.563-77.078 77.046-77.078 42.486 0 77.049 34.578 77.049 77.078s-34.563 77.076-77.049 77.076z" fill="#F5F5F5"/><path fill-rule="evenodd" clip-rule="evenodd" d="M372.163 217.876c-35.464 0-64.316 28.863-64.316 64.342 0 35.478 28.852 64.341 64.316 64.341 35.465 0 64.317-28.863 64.317-64.341 0-35.479-28.852-64.342-64.317-64.342zm0 129.511c-35.919 0-65.144-29.236-65.144-65.169 0-35.936 29.225-65.172 65.144-65.172 35.922 0 65.147 29.236 65.147 65.172 0 35.933-29.225 65.169-65.147 65.169z" fill="#F5F5F5"/><path fill-rule="evenodd" clip-rule="evenodd" d="M372.163 230.585c-28.459 0-51.612 23.162-51.612 51.632 0 28.471 23.153 51.633 51.612 51.633 28.46 0 51.613-23.162 51.613-51.633 0-28.47-23.153-51.632-51.613-51.632zm0 104.093c-28.914 0-52.44-23.535-52.44-52.461 0-28.927 23.526-52.462 52.44-52.462 28.917 0 52.443 23.535 52.443 52.462 0 28.926-23.526 52.461-52.443 52.461z" fill="#F5F5F5"/><path fill-rule="evenodd" clip-rule="evenodd" d="M372.163 241.894c-22.225 0-40.306 18.089-40.306 40.323s18.081 40.322 40.306 40.322c22.226 0 40.307-18.088 40.307-40.322s-18.081-40.323-40.307-40.323zm0 81.475c-22.682 0-41.134-18.461-41.134-41.152 0-22.691 18.452-41.153 41.134-41.153 22.683 0 41.137 18.462 41.137 41.153s-18.454 41.152-41.137 41.152z" fill="#F5F5F5"/><path fill-rule="evenodd" clip-rule="evenodd" d="M372.163 253.826c-15.649 0-28.379 12.736-28.379 28.39 0 15.656 12.73 28.391 28.379 28.391 15.65 0 28.382-12.735 28.382-28.391 0-15.654-12.732-28.39-28.382-28.39zm0 57.611c-16.104 0-29.208-13.108-29.208-29.221 0-16.111 13.104-29.218 29.208-29.218 16.107 0 29.209 13.107 29.209 29.218 0 16.113-13.102 29.221-29.209 29.221z" fill="#F5F5F5"/><path fill-rule="evenodd" clip-rule="evenodd" d="M372.163 170.745c-61.441 0-111.428 50.006-111.428 111.472 0 61.466 49.987 111.472 111.428 111.472 61.442 0 111.429-50.006 111.429-111.472 0-61.466-49.987-111.472-111.429-111.472zm0 223.774c-61.898 0-112.256-50.379-112.256-112.302 0-61.923 50.358-112.302 112.256-112.302 61.901 0 112.259 50.379 112.259 112.302 0 61.923-50.358 112.302-112.259 112.302z" fill="#F5F5F5"/><path fill-rule="evenodd" clip-rule="evenodd" d="M372.163 158.943c-67.946 0-123.226 55.3-123.226 123.273 0 67.975 55.28 123.277 123.226 123.277 67.947 0 123.227-55.302 123.227-123.277 0-67.973-55.28-123.273-123.227-123.273zm0 247.377c-68.403 0-124.054-55.672-124.054-124.104 0-68.43 55.651-124.103 124.054-124.103 68.404 0 124.055 55.673 124.055 124.103 0 68.432-55.651 124.104-124.055 124.104zm0 203.774c-55.009 0-99.764 44.772-99.764 99.802 0 55.033 44.755 99.805 99.764 99.805 55.012 0 99.766-44.772 99.766-99.805 0-55.03-44.754-99.802-99.766-99.802zm0 200.437c-55.468 0-100.593-45.143-100.593-100.635 0-55.488 45.125-100.632 100.593-100.632 55.469 0 100.594 45.144 100.594 100.632 0 55.492-45.125 100.635-100.594 100.635z" fill="#F5F5F5"/><path fill-rule="evenodd" clip-rule="evenodd" d="M372.163 598.425c-61.441 0-111.428 50.006-111.428 111.472 0 61.465 49.987 111.472 111.428 111.472 61.442 0 111.429-50.007 111.429-111.472 0-61.466-49.987-111.472-111.429-111.472zm0 223.774c-61.898 0-112.256-50.38-112.256-112.302 0-61.923 50.358-112.302 112.256-112.302 61.901 0 112.259 50.379 112.259 112.302 0 61.922-50.358 112.302-112.259 112.302z" fill="#F5F5F5"/><path fill-rule="evenodd" clip-rule="evenodd" d="M372.163 586.623c-67.946 0-123.226 55.299-123.226 123.273 0 67.975 55.28 123.276 123.226 123.276 67.947 0 123.227-55.301 123.227-123.276 0-67.974-55.28-123.273-123.227-123.273zm0 247.377c-68.403 0-124.054-55.672-124.054-124.104 0-68.431 55.651-124.103 124.054-124.103 68.404 0 124.055 55.672 124.055 124.103 0 68.432-55.651 124.104-124.055 124.104zm123.419-437.746c-55.01 0-99.764 44.772-99.764 99.802 0 55.033 44.754 99.805 99.764 99.805 55.011 0 99.766-44.772 99.766-99.805 0-55.03-44.755-99.802-99.766-99.802zm0 200.437c-55.469 0-100.594-45.143-100.594-100.635 0-55.487 45.125-100.632 100.594-100.632 55.468 0 100.593 45.145 100.593 100.632 0 55.492-45.125 100.635-100.593 100.635z" fill="#F5F5F5"/><path fill-rule="evenodd" clip-rule="evenodd" d="M495.582 407.516c-48.801 0-88.506 39.719-88.506 88.54 0 48.823 39.705 88.542 88.506 88.542 48.802 0 88.505-39.719 88.505-88.542 0-48.821-39.703-88.54-88.505-88.54zm0 177.911c-49.26 0-89.335-40.091-89.335-89.371 0-49.278 40.075-89.369 89.335-89.369 49.259 0 89.335 40.091 89.335 89.369 0 49.28-40.076 89.371-89.335 89.371z" fill="#F5F5F5"/><path fill-rule="evenodd" clip-rule="evenodd" d="M495.582 419.808c-42.027 0-76.219 34.206-76.219 76.249 0 42.043 34.192 76.248 76.219 76.248 42.028 0 76.219-34.205 76.219-76.248 0-42.043-34.191-76.249-76.219-76.249zm0 153.325c-42.484 0-77.047-34.576-77.047-77.076 0-42.5 34.563-77.078 77.047-77.078 42.485 0 77.048 34.578 77.048 77.078s-34.563 77.076-77.048 77.076z" fill="#F5F5F5"/><path fill-rule="evenodd" clip-rule="evenodd" d="M495.582 431.716c-35.465 0-64.317 28.863-64.317 64.341 0 35.479 28.852 64.342 64.317 64.342 35.465 0 64.317-28.863 64.317-64.342 0-35.478-28.852-64.341-64.317-64.341zm0 129.511c-35.92 0-65.145-29.236-65.145-65.17 0-35.935 29.225-65.171 65.145-65.171 35.921 0 65.146 29.236 65.146 65.171 0 35.934-29.225 65.17-65.146 65.17z" fill="#F5F5F5"/><path fill-rule="evenodd" clip-rule="evenodd" d="M495.582 444.425c-28.46 0-51.613 23.162-51.613 51.632 0 28.471 23.153 51.633 51.613 51.633 28.459 0 51.612-23.162 51.612-51.633 0-28.47-23.153-51.632-51.612-51.632zm0 104.093c-28.915 0-52.441-23.535-52.441-52.461 0-28.928 23.526-52.462 52.441-52.462 28.916 0 52.442 23.534 52.442 52.462 0 28.926-23.526 52.461-52.442 52.461z" fill="#F5F5F5"/><path fill-rule="evenodd" clip-rule="evenodd" d="M495.582 455.734c-22.226 0-40.307 18.089-40.307 40.323s18.081 40.322 40.307 40.322c22.225 0 40.307-18.088 40.307-40.322s-18.082-40.323-40.307-40.323zm0 81.475c-22.683 0-41.135-18.461-41.135-41.152 0-22.691 18.452-41.153 41.135-41.153 22.682 0 41.136 18.462 41.136 41.153s-18.454 41.152-41.136 41.152z" fill="#F5F5F5"/><path fill-rule="evenodd" clip-rule="evenodd" d="M495.582 467.666c-15.65 0-28.38 12.736-28.38 28.39 0 15.656 12.73 28.391 28.38 28.391 15.649 0 28.381-12.735 28.381-28.391 0-15.654-12.732-28.39-28.381-28.39zm0 57.61c-16.105 0-29.209-13.107-29.209-29.22 0-16.111 13.104-29.218 29.209-29.218 16.106 0 29.209 13.107 29.209 29.218 0 16.113-13.103 29.22-29.209 29.22z" fill="#F5F5F5"/><path fill-rule="evenodd" clip-rule="evenodd" d="M495.582 384.585c-61.442 0-111.429 50.006-111.429 111.472 0 61.465 49.987 111.472 111.429 111.472S607.01 557.522 607.01 496.057c0-61.466-49.986-111.472-111.428-111.472zm0 223.774c-61.899 0-112.257-50.379-112.257-112.302 0-61.923 50.358-112.302 112.257-112.302 61.9 0 112.258 50.379 112.258 112.302 0 61.923-50.358 112.302-112.258 112.302z" fill="#F5F5F5"/><path fill-rule="evenodd" clip-rule="evenodd" d="M495.582 372.783c-67.947 0-123.227 55.299-123.227 123.273 0 67.975 55.28 123.276 123.227 123.276s123.227-55.301 123.227-123.276c0-67.974-55.28-123.273-123.227-123.273zm0 247.377c-68.404 0-124.055-55.672-124.055-124.104 0-68.431 55.651-124.103 124.055-124.103s124.054 55.672 124.054 124.103c0 68.432-55.65 124.104-124.054 124.104zm0-652.86c-55.01 0-99.764 44.773-99.764 99.803 0 55.033 44.754 99.805 99.764 99.805 55.011 0 99.766-44.772 99.766-99.805 0-55.03-44.755-99.802-99.766-99.802zm0 200.438c-55.469 0-100.594-45.143-100.594-100.635 0-55.487 45.125-100.632 100.594-100.632 55.468 0 100.593 45.145 100.593 100.632 0 55.492-45.125 100.635-100.593 100.635z" fill="#F5F5F5"/><path fill-rule="evenodd" clip-rule="evenodd" d="M495.582-21.437c-48.801 0-88.506 39.718-88.506 88.54 0 48.823 39.705 88.541 88.506 88.541 48.802 0 88.505-39.718 88.505-88.541 0-48.821-39.703-88.54-88.505-88.54zm0 177.911c-49.26 0-89.335-40.091-89.335-89.371 0-49.279 40.075-89.37 89.335-89.37 49.259 0 89.335 40.091 89.335 89.37 0 49.28-40.076 89.371-89.335 89.371z" fill="#F5F5F5"/><path fill-rule="evenodd" clip-rule="evenodd" d="M495.582-9.145c-42.027 0-76.219 34.206-76.219 76.249 0 42.043 34.192 76.248 76.219 76.248 42.028 0 76.219-34.205 76.219-76.248 0-42.043-34.191-76.249-76.219-76.249zm0 153.325c-42.484 0-77.047-34.576-77.047-77.076 0-42.5 34.563-77.079 77.047-77.079 42.485 0 77.048 34.578 77.048 77.079 0 42.5-34.563 77.076-77.048 77.076z" fill="#F5F5F5"/><path fill-rule="evenodd" clip-rule="evenodd" d="M495.582 2.762c-35.465 0-64.317 28.864-64.317 64.342 0 35.479 28.852 64.342 64.317 64.342 35.465 0 64.317-28.863 64.317-64.342 0-35.478-28.852-64.342-64.317-64.342zm0 129.512c-35.92 0-65.145-29.236-65.145-65.17 0-35.935 29.225-65.171 65.145-65.171 35.921 0 65.146 29.236 65.146 65.171 0 35.934-29.225 65.17-65.146 65.17z" fill="#F5F5F5"/><path fill-rule="evenodd" clip-rule="evenodd" d="M495.582 15.472c-28.46 0-51.613 23.161-51.613 51.632 0 28.471 23.153 51.633 51.613 51.633 28.459 0 51.612-23.162 51.612-51.633 0-28.47-23.153-51.633-51.612-51.633zm0 104.093c-28.915 0-52.441-23.535-52.441-52.46 0-28.929 23.526-52.463 52.441-52.463 28.916 0 52.442 23.534 52.442 52.462 0 28.926-23.526 52.461-52.442 52.461z" fill="#F5F5F5"/><path fill-rule="evenodd" clip-rule="evenodd" d="M495.582 26.781c-22.226 0-40.307 18.089-40.307 40.322 0 22.235 18.081 40.323 40.307 40.323 22.225 0 40.307-18.088 40.307-40.323 0-22.233-18.082-40.322-40.307-40.322zm0 81.475c-22.683 0-41.135-18.461-41.135-41.153 0-22.69 18.452-41.152 41.135-41.152 22.682 0 41.136 18.462 41.136 41.152 0 22.692-18.454 41.153-41.136 41.153z" fill="#F5F5F5"/><path fill-rule="evenodd" clip-rule="evenodd" d="M495.582 38.713c-15.65 0-28.38 12.736-28.38 28.39 0 15.656 12.73 28.39 28.38 28.39 15.649 0 28.381-12.734 28.381-28.39 0-15.654-12.732-28.39-28.381-28.39zm0 57.61c-16.105 0-29.209-13.107-29.209-29.22 0-16.11 13.104-29.218 29.209-29.218 16.106 0 29.209 13.107 29.209 29.218 0 16.113-13.103 29.22-29.209 29.22z" fill="#F5F5F5"/><path fill-rule="evenodd" clip-rule="evenodd" d="M495.582-44.368c-61.442 0-111.429 50.006-111.429 111.472 0 61.465 49.987 111.472 111.429 111.472S607.01 128.569 607.01 67.104c0-61.466-49.986-111.472-111.428-111.472zm0 223.774c-61.899 0-112.257-50.38-112.257-112.302 0-61.923 50.358-112.302 112.257-112.302 61.9 0 112.258 50.379 112.258 112.302 0 61.922-50.358 112.302-112.258 112.302z" fill="#F5F5F5"/><path fill-rule="evenodd" clip-rule="evenodd" d="M495.582-56.17c-67.947 0-123.227 55.3-123.227 123.273 0 67.975 55.28 123.276 123.227 123.276s123.227-55.301 123.227-123.276c0-67.974-55.28-123.273-123.227-123.273zm0 247.377c-68.404 0-124.055-55.672-124.055-124.104C371.527-1.327 427.178-57 495.582-57S619.636-1.328 619.636 67.103c0 68.432-55.65 124.104-124.054 124.104zM619 182.414c-55.009 0-99.764 44.772-99.764 99.803 0 55.032 44.755 99.804 99.764 99.804 55.011 0 99.766-44.772 99.766-99.804 0-55.031-44.755-99.803-99.766-99.803zm0 200.437c-55.468 0-100.594-45.143-100.594-100.634 0-55.488 45.126-100.633 100.594-100.633 55.468 0 100.594 45.145 100.594 100.633 0 55.491-45.126 100.634-100.594 100.634z" fill="#F5F5F5"/><path fill-rule="evenodd" clip-rule="evenodd" d="M619 193.677c-48.8 0-88.505 39.718-88.505 88.539 0 48.823 39.705 88.542 88.505 88.542 48.802 0 88.505-39.719 88.505-88.542 0-48.821-39.703-88.539-88.505-88.539zm0 177.911c-49.259 0-89.335-40.091-89.335-89.372 0-49.278 40.076-89.369 89.335-89.369 49.259 0 89.335 40.091 89.335 89.369 0 49.281-40.076 89.372-89.335 89.372z" fill="#F5F5F5"/><path fill-rule="evenodd" clip-rule="evenodd" d="M619 205.969c-42.027 0-76.219 34.205-76.219 76.248 0 42.043 34.192 76.248 76.219 76.248 42.029 0 76.219-34.205 76.219-76.248 0-42.043-34.19-76.248-76.219-76.248zm0 153.324c-42.484 0-77.046-34.576-77.046-77.076 0-42.5 34.562-77.078 77.046-77.078 42.486 0 77.048 34.578 77.048 77.078S661.486 359.293 619 359.293z" fill="#F5F5F5"/><path fill-rule="evenodd" clip-rule="evenodd" d="M619 217.876c-35.465 0-64.317 28.863-64.317 64.342 0 35.478 28.852 64.341 64.317 64.341 35.465 0 64.317-28.863 64.317-64.341 0-35.479-28.852-64.342-64.317-64.342zm0 129.511c-35.92 0-65.144-29.236-65.144-65.169 0-35.936 29.224-65.172 65.144-65.172 35.922 0 65.146 29.236 65.146 65.172 0 35.933-29.224 65.169-65.146 65.169z" fill="#F5F5F5"/><path fill-rule="evenodd" clip-rule="evenodd" d="M619 230.585c-28.46 0-51.613 23.162-51.613 51.632 0 28.471 23.153 51.633 51.613 51.633s51.613-23.162 51.613-51.633c0-28.47-23.153-51.632-51.613-51.632zm0 104.093c-28.915 0-52.44-23.535-52.44-52.461 0-28.927 23.525-52.462 52.44-52.462 28.917 0 52.442 23.535 52.442 52.462 0 28.926-23.525 52.461-52.442 52.461z" fill="#F5F5F5"/><path fill-rule="evenodd" clip-rule="evenodd" d="M619 241.894c-22.225 0-40.307 18.089-40.307 40.323s18.082 40.322 40.307 40.322 40.307-18.088 40.307-40.322-18.082-40.323-40.307-40.323zm0 81.475c-22.682 0-41.134-18.461-41.134-41.152 0-22.691 18.452-41.153 41.134-41.153s41.136 18.462 41.136 41.153-18.454 41.152-41.136 41.152z" fill="#F5F5F5"/><path fill-rule="evenodd" clip-rule="evenodd" d="M619 253.826c-15.65 0-28.379 12.736-28.379 28.39 0 15.656 12.729 28.391 28.379 28.391 15.65 0 28.381-12.735 28.381-28.391 0-15.654-12.731-28.39-28.381-28.39zm0 57.611c-16.105 0-29.209-13.108-29.209-29.221 0-16.111 13.104-29.218 29.209-29.218 16.107 0 29.209 13.107 29.209 29.218 0 16.113-13.102 29.221-29.209 29.221z" fill="#F5F5F5"/><path fill-rule="evenodd" clip-rule="evenodd" d="M619 170.745c-61.442 0-111.429 50.006-111.429 111.472 0 61.466 49.987 111.472 111.429 111.472s111.429-50.006 111.429-111.472c0-61.466-49.987-111.472-111.429-111.472zm0 223.774c-61.899 0-112.256-50.379-112.256-112.302 0-61.923 50.357-112.302 112.256-112.302 61.901 0 112.258 50.379 112.258 112.302 0 61.923-50.357 112.302-112.258 112.302z" fill="#F5F5F5"/><path fill-rule="evenodd" clip-rule="evenodd" d="M619 158.943c-67.947 0-123.227 55.3-123.227 123.273 0 67.975 55.28 123.277 123.227 123.277s123.227-55.302 123.227-123.277c0-67.973-55.28-123.273-123.227-123.273zm0 247.377c-68.404 0-124.054-55.672-124.054-124.104 0-68.43 55.65-124.103 124.054-124.103s124.055 55.673 124.055 124.103c0 68.432-55.651 124.104-124.055 124.104zm0 203.774c-55.009 0-99.764 44.772-99.764 99.802 0 55.033 44.755 99.805 99.764 99.805 55.011 0 99.766-44.772 99.766-99.805 0-55.03-44.755-99.802-99.766-99.802zm0 200.437c-55.468 0-100.594-45.143-100.594-100.635 0-55.488 45.126-100.632 100.594-100.632 55.468 0 100.594 45.144 100.594 100.632 0 55.492-45.126 100.635-100.594 100.635z" fill="#F5F5F5"/><path fill-rule="evenodd" clip-rule="evenodd" d="M619 598.425c-61.442 0-111.429 50.006-111.429 111.472 0 61.465 49.987 111.472 111.429 111.472s111.429-50.007 111.429-111.472c0-61.466-49.987-111.472-111.429-111.472zm0 223.774c-61.899 0-112.256-50.38-112.256-112.302 0-61.923 50.357-112.302 112.256-112.302 61.901 0 112.258 50.379 112.258 112.302 0 61.922-50.357 112.302-112.258 112.302z" fill="#F5F5F5"/><path fill-rule="evenodd" clip-rule="evenodd" d="M619 586.623c-67.947 0-123.227 55.299-123.227 123.273 0 67.975 55.28 123.276 123.227 123.276s123.227-55.301 123.227-123.276c0-67.974-55.28-123.273-123.227-123.273zM619 834c-68.404 0-124.054-55.672-124.054-124.104 0-68.431 55.65-124.103 124.054-124.103s124.055 55.672 124.055 124.103C743.055 778.328 687.404 834 619 834z" fill="#F5F5F5"/></svg>